<mxfile host="app.diagrams.net" modified="2024-07-03T20:51:46.366Z" agent="Mozilla/5.0 (Windows NT 10.0; Win64; x64) AppleWebKit/537.36 (KHTML, like Gecko) Chrome/126.0.0.0 Safari/537.36" etag="_kFpcj1brXldl7J952mN" version="24.3.1" type="device">
  <diagram name="Page-1" id="GxdYRYemWviENZr0umGK">
    <mxGraphModel dx="1434" dy="738" grid="1" gridSize="10" guides="1" tooltips="1" connect="1" arrows="1" fold="1" page="1" pageScale="1" pageWidth="827" pageHeight="1169" math="0" shadow="0">
      <root>
        <mxCell id="0" />
        <mxCell id="1" parent="0" />
        <mxCell id="hl8BZ2a94ySbhPf2MeLu-83" value="" style="edgeStyle=orthogonalEdgeStyle;rounded=0;orthogonalLoop=1;jettySize=auto;html=1;" edge="1" parent="1" source="hl8BZ2a94ySbhPf2MeLu-6" target="hl8BZ2a94ySbhPf2MeLu-23">
          <mxGeometry relative="1" as="geometry" />
        </mxCell>
        <mxCell id="hl8BZ2a94ySbhPf2MeLu-6" value="Staff" style="ellipse;whiteSpace=wrap;html=1;" vertex="1" parent="1">
          <mxGeometry x="360" y="30" width="120" height="80" as="geometry" />
        </mxCell>
        <mxCell id="hl8BZ2a94ySbhPf2MeLu-23" value="Relationship" style="rhombus;whiteSpace=wrap;html=1;" vertex="1" parent="1">
          <mxGeometry x="375" y="160" width="90" height="90" as="geometry" />
        </mxCell>
        <mxCell id="hl8BZ2a94ySbhPf2MeLu-64" style="edgeStyle=orthogonalEdgeStyle;rounded=0;orthogonalLoop=1;jettySize=auto;html=1;entryX=0;entryY=0.5;entryDx=0;entryDy=0;" edge="1" parent="1" source="hl8BZ2a94ySbhPf2MeLu-66" target="hl8BZ2a94ySbhPf2MeLu-78">
          <mxGeometry relative="1" as="geometry" />
        </mxCell>
        <mxCell id="hl8BZ2a94ySbhPf2MeLu-65" value="" style="edgeStyle=orthogonalEdgeStyle;rounded=0;orthogonalLoop=1;jettySize=auto;html=1;" edge="1" parent="1" source="hl8BZ2a94ySbhPf2MeLu-66" target="hl8BZ2a94ySbhPf2MeLu-80">
          <mxGeometry relative="1" as="geometry" />
        </mxCell>
        <mxCell id="hl8BZ2a94ySbhPf2MeLu-66" value="Bookings" style="ellipse;whiteSpace=wrap;html=1;" vertex="1" parent="1">
          <mxGeometry x="50" y="285" width="120" height="80" as="geometry" />
        </mxCell>
        <mxCell id="hl8BZ2a94ySbhPf2MeLu-67" style="edgeStyle=orthogonalEdgeStyle;rounded=0;orthogonalLoop=1;jettySize=auto;html=1;" edge="1" parent="1" source="hl8BZ2a94ySbhPf2MeLu-70" target="hl8BZ2a94ySbhPf2MeLu-78">
          <mxGeometry relative="1" as="geometry" />
        </mxCell>
        <mxCell id="hl8BZ2a94ySbhPf2MeLu-68" value="" style="edgeStyle=orthogonalEdgeStyle;rounded=0;orthogonalLoop=1;jettySize=auto;html=1;" edge="1" parent="1" source="hl8BZ2a94ySbhPf2MeLu-70" target="hl8BZ2a94ySbhPf2MeLu-79">
          <mxGeometry relative="1" as="geometry" />
        </mxCell>
        <mxCell id="hl8BZ2a94ySbhPf2MeLu-69" value="" style="edgeStyle=orthogonalEdgeStyle;rounded=0;orthogonalLoop=1;jettySize=auto;html=1;" edge="1" parent="1" source="hl8BZ2a94ySbhPf2MeLu-70" target="hl8BZ2a94ySbhPf2MeLu-81">
          <mxGeometry relative="1" as="geometry" />
        </mxCell>
        <mxCell id="hl8BZ2a94ySbhPf2MeLu-82" value="" style="edgeStyle=orthogonalEdgeStyle;rounded=0;orthogonalLoop=1;jettySize=auto;html=1;" edge="1" parent="1" source="hl8BZ2a94ySbhPf2MeLu-70" target="hl8BZ2a94ySbhPf2MeLu-23">
          <mxGeometry relative="1" as="geometry" />
        </mxCell>
        <mxCell id="hl8BZ2a94ySbhPf2MeLu-70" value="Orders" style="ellipse;whiteSpace=wrap;html=1;" vertex="1" parent="1">
          <mxGeometry x="360" y="285" width="120" height="80" as="geometry" />
        </mxCell>
        <mxCell id="hl8BZ2a94ySbhPf2MeLu-71" value="" style="edgeStyle=orthogonalEdgeStyle;rounded=0;orthogonalLoop=1;jettySize=auto;html=1;" edge="1" parent="1" source="hl8BZ2a94ySbhPf2MeLu-72" target="hl8BZ2a94ySbhPf2MeLu-79">
          <mxGeometry relative="1" as="geometry" />
        </mxCell>
        <mxCell id="hl8BZ2a94ySbhPf2MeLu-72" value="OrderDelivery" style="ellipse;whiteSpace=wrap;html=1;" vertex="1" parent="1">
          <mxGeometry x="680" y="285" width="120" height="80" as="geometry" />
        </mxCell>
        <mxCell id="hl8BZ2a94ySbhPf2MeLu-73" value="" style="edgeStyle=orthogonalEdgeStyle;rounded=0;orthogonalLoop=1;jettySize=auto;html=1;" edge="1" parent="1" source="hl8BZ2a94ySbhPf2MeLu-74" target="hl8BZ2a94ySbhPf2MeLu-81">
          <mxGeometry relative="1" as="geometry" />
        </mxCell>
        <mxCell id="hl8BZ2a94ySbhPf2MeLu-74" value="Menu" style="ellipse;whiteSpace=wrap;html=1;" vertex="1" parent="1">
          <mxGeometry x="360" y="520" width="120" height="80" as="geometry" />
        </mxCell>
        <mxCell id="hl8BZ2a94ySbhPf2MeLu-75" value="" style="edgeStyle=orthogonalEdgeStyle;rounded=0;orthogonalLoop=1;jettySize=auto;html=1;" edge="1" parent="1" source="hl8BZ2a94ySbhPf2MeLu-76" target="hl8BZ2a94ySbhPf2MeLu-80">
          <mxGeometry relative="1" as="geometry" />
        </mxCell>
        <mxCell id="hl8BZ2a94ySbhPf2MeLu-76" value="Customer" style="ellipse;whiteSpace=wrap;html=1;" vertex="1" parent="1">
          <mxGeometry x="50" y="520" width="120" height="80" as="geometry" />
        </mxCell>
        <mxCell id="hl8BZ2a94ySbhPf2MeLu-78" value="Relationship" style="rhombus;whiteSpace=wrap;html=1;" vertex="1" parent="1">
          <mxGeometry x="220" y="280" width="90" height="90" as="geometry" />
        </mxCell>
        <mxCell id="hl8BZ2a94ySbhPf2MeLu-79" value="Relationship" style="rhombus;whiteSpace=wrap;html=1;" vertex="1" parent="1">
          <mxGeometry x="540" y="280" width="90" height="90" as="geometry" />
        </mxCell>
        <mxCell id="hl8BZ2a94ySbhPf2MeLu-80" value="Relationship" style="rhombus;whiteSpace=wrap;html=1;" vertex="1" parent="1">
          <mxGeometry x="65" y="400" width="90" height="90" as="geometry" />
        </mxCell>
        <mxCell id="hl8BZ2a94ySbhPf2MeLu-81" value="Relationship" style="rhombus;whiteSpace=wrap;html=1;" vertex="1" parent="1">
          <mxGeometry x="375" y="400" width="90" height="90" as="geometry" />
        </mxCell>
      </root>
    </mxGraphModel>
  </diagram>
</mxfile>
